<svg xmlns="http://www.w3.org/2000/svg" viewBox="0 0 64 64" role="img" aria-label="VaxBook">
  <defs>
    <linearGradient id="g" x1="0" y1="0" x2="1" y2="1">
      <stop offset="0" stop-color="#0f172a"/>
      <stop offset="1" stop-color="#334155"/>
    </linearGradient>
  </defs>
  <rect x="6" y="6" width="52" height="52" rx="14" fill="url(#g)"/>
  <path d="M20 33c0-7.2 5.8-13 13-13h11v8H33c-2.8 0-5 2.2-5 5v11h-8V33z" fill="#f8fafc" opacity="0.92"/>
  <path d="M44 44H33c-7.2 0-13-5.8-13-13V20h8v11c0 2.8 2.2 5 5 5h11v8z" fill="#e2e8f0" opacity="0.9"/>
  <path d="M36.5 18.5h4v7h7v4h-7v7h-4v-7h-7v-4h7v-7z" fill="#22c55e"/>
</svg>

