<svg xmlns="http://www.w3.org/2000/svg" width="1200" height="630" viewBox="0 0 1200 630">
  <defs>
    <linearGradient id="bg" x1="0" y1="0" x2="1" y2="1">
      <stop offset="0" stop-color="#0b1220"/>
      <stop offset="1" stop-color="#24314a"/>
    </linearGradient>
    <linearGradient id="orb" x1="0" y1="0" x2="1" y2="1">
      <stop offset="0" stop-color="#c7d0c0" stop-opacity="0.65"/>
      <stop offset="1" stop-color="#e4dcc8" stop-opacity="0.25"/>
    </linearGradient>
  </defs>

  <rect width="1200" height="630" fill="url(#bg)"/>
  <circle cx="190" cy="110" r="260" fill="url(#orb)"/>
  <circle cx="1080" cy="120" r="290" fill="url(#orb)"/>
  <circle cx="720" cy="650" r="320" fill="url(#orb)"/>

  <g transform="translate(96 110)">
    <rect x="0" y="0" width="108" height="108" rx="28" fill="#0f172a"/>
    <path d="M28 56c0-14.4 11.6-26 26-26h22v16H54c-5.5 0-10 4.5-10 10v22H28V56z" fill="#f8fafc" opacity="0.92"/>
    <path d="M76 76H54c-14.4 0-26-11.6-26-26V28h16v22c0 5.5 4.5 10 10 10h22v16z" fill="#e2e8f0" opacity="0.9"/>
    <path d="M63 24h8v16h16v8H71v16h-8V48H47v-8h16V24z" fill="#22c55e"/>
  </g>

  <text x="96" y="310" fill="#ffffff" font-family="ui-sans-serif, system-ui, -apple-system, Segoe UI, Roboto, Arial" font-size="72" font-weight="800">
    VaxBook
  </text>
  <text x="96" y="372" fill="#cbd5e1" font-family="ui-sans-serif, system-ui, -apple-system, Segoe UI, Roboto, Arial" font-size="32" font-weight="500">
    Hospital Vaccine Search &amp; Slot Booking
  </text>
  <text x="96" y="430" fill="#94a3b8" font-family="ui-sans-serif, system-ui, -apple-system, Segoe UI, Roboto, Arial" font-size="24">
    Find hospitals " Check availability " Book in seconds
  </text>
</svg>

